<svg xmlns="http://www.w3.org/2000/svg" viewBox="0 0 1200 700" role="img" aria-label="Alien encounter near a temporal fault line">
  <defs>
    <linearGradient id="sky" x1="0" y1="0" x2="0" y2="1">
      <stop offset="0%" stop-color="#130F18"/>
      <stop offset="100%" stop-color="#09090C"/>
    </linearGradient>
  </defs>
  <rect width="1200" height="700" fill="url(#sky)"/>
  <path d="M0 560h1200v140H0z" fill="#1A1520"/>
  <g fill="#2B2033">
    <rect x="80" y="430" width="80" height="130"/>
    <rect x="180" y="390" width="110" height="170"/>
    <rect x="330" y="360" width="90" height="200"/>
    <rect x="470" y="410" width="120" height="150"/>
    <rect x="650" y="380" width="100" height="180"/>
    <rect x="800" y="420" width="90" height="140"/>
  </g>
  <path d="M600 120l95 75H505z" fill="#FF3B6B" opacity="0.92"/>
  <ellipse cx="600" cy="200" rx="120" ry="34" fill="#FF7AA2" opacity="0.25"/>
  <path d="M585 240h30L670 560H530z" fill="#FF3B6B" opacity="0.22"/>
  <g stroke="#FF7AA2" stroke-width="3" opacity="0.9">
    <path d="M910 100c30 50 20 120-25 170s-105 72-165 55"/>
    <path d="M880 140c22 32 16 80-16 118-32 38-75 56-118 50"/>
  </g>
  <text x="65" y="90" fill="#F5EEF8" font-family="Rajdhani, sans-serif" font-size="50" letter-spacing="2">FAULTLINE CONTACT</text>
</svg>
